<svg width="12" height="12" viewBox="0 0 12 12" fill="none" xmlns="http://www.w3.org/2000/svg">
<g clip-path="url(#clip0)">
<path d="M11.5402 2.45027C11.0797 1.81669 10.2734 1.24481 9.26966 0.840048C8.27134 0.437486 7.11221 0.214853 6.00575 0.213283C4.8992 0.210517 3.73864 0.430853 2.73889 0.830275C1.73343 1.23202 0.92516 1.80141 0.46302 2.43349C0.0191602 3.04057 -0.108762 3.69492 0.0930586 4.32581C0.224004 4.73506 0.605918 5.01045 1.04364 5.01108L2.54249 5.01249C2.543 5.01249 2.5435 5.01249 2.54399 5.01249C2.84286 5.01246 3.12367 4.88163 3.3145 4.65338C3.50331 4.42756 3.5815 4.13243 3.52909 3.84363C3.52754 3.83515 3.52569 3.82674 3.52356 3.81837L3.44469 3.51176C3.88143 3.30338 4.87096 2.90077 6.00114 2.90717C7.1305 2.91295 8.11935 3.31533 8.5566 3.52381L8.47646 3.82868C8.47419 3.83733 8.47225 3.846 8.47065 3.85474C8.41743 4.14338 8.49479 4.43871 8.68293 4.66507C8.87345 4.89429 9.15444 5.02596 9.45409 5.02641L10.9529 5.02781C10.9535 5.02781 10.9539 5.02781 10.9544 5.02781C11.3913 5.02779 11.7734 4.75369 11.9053 4.34529C12.109 3.71456 11.9828 3.0593 11.5402 2.45027Z" fill="#A89574"/>
<path d="M9.38898 6.55799L8.27124 5.38436C8.20365 5.31339 8.10994 5.27324 8.01195 5.27324H7.28961V4.7852C7.28961 4.58746 7.1293 4.42712 6.93153 4.42712C6.73376 4.42712 6.57345 4.58744 6.57345 4.7852V5.27324H5.42684V4.7852C5.42684 4.58746 5.26653 4.42712 5.06876 4.42712C4.871 4.42712 4.71069 4.58744 4.71069 4.7852V5.27324H3.98837C3.89037 5.27324 3.79665 5.31341 3.72908 5.38436L2.61134 6.55799C1.73497 7.47819 1.25232 8.6848 1.25232 9.95554V11.4287C1.25232 11.6264 1.41263 11.7867 1.6104 11.7867H10.3899C10.5877 11.7867 10.748 11.6264 10.748 11.4287V9.95554C10.748 8.6848 10.2654 7.47822 9.38898 6.55799ZM6.00015 10.4778C4.96679 10.4778 4.12611 9.63714 4.12611 8.60378C4.12611 7.57044 4.96681 6.72974 6.00015 6.72974C7.03348 6.72974 7.87419 7.57044 7.87419 8.60378C7.87419 9.63714 7.03348 10.4778 6.00015 10.4778Z" fill="#A89574"/>
<path d="M6.00014 7.44592C5.36165 7.44592 4.84225 7.96534 4.84225 8.60381C4.84225 9.24229 5.36168 9.76171 6.00014 9.76171C6.6386 9.76171 7.15802 9.24229 7.15802 8.60381C7.15802 7.96537 6.6386 7.44592 6.00014 7.44592Z" fill="#A89574"/>
</g>
<defs>
<clipPath id="clip0">
<rect width="12" height="12" fill="white"/>
</clipPath>
</defs>
</svg>
